<?xml version="1.0" encoding="UTF-8" standalone="no"?>
<!DOCTYPE svg PUBLIC "-//W3C//DTD SVG 1.1//EN" "http://www.w3.org/Graphics/SVG/1.1/DTD/svg11.dtd">
<svg width="100%" height="100%" viewBox="0 0 1000 1000" version="1.1" xmlns="http://www.w3.org/2000/svg" xmlns:xlink="http://www.w3.org/1999/xlink" xml:space="preserve" xmlns:serif="http://www.serif.com/" style="fill-rule:evenodd;clip-rule:evenodd;stroke-linecap:square;stroke-linejoin:round;">
    <g transform="matrix(1.29364,0,0,1.29364,-147.773,-149.778)">
        <g id="Image-1" serif:id="Image 1">
            <g id="g829">
                <path id="path948" d="M352.227,463.563C126.981,345.067 293.006,117.709 457.505,176.51C591.413,224.376 644.713,403.756 554.187,548.114C457.288,688.273 271.436,710.113 174.596,605.975C55.634,478.047 198.99,235.755 396.778,395.932" style="fill:none;fill-rule:nonzero;stroke:black;stroke-width:15.12px;"/>
                <path id="path948-7" d="M649.242,463.563C874.488,345.067 708.463,117.709 543.964,176.51C410.056,224.376 356.756,403.756 447.282,548.114C544.181,688.273 730.033,710.113 826.873,605.975C945.835,478.047 802.479,235.755 604.691,395.932" style="fill:none;fill-rule:nonzero;stroke:black;stroke-width:15.12px;"/>
                <path id="path948-7-0" d="M459.373,642.695C433.349,895.874 714.601,883.487 756.705,713.944C790.98,575.93 671.107,432.234 500.773,427.7C330.408,430.798 209.327,573.477 242.436,711.776C283.109,881.667 564.246,896.426 540.359,643.037" style="fill:none;fill-rule:nonzero;stroke:black;stroke-width:15.12px;"/>
            </g>
        </g>
    </g>
</svg>
